<?xml version="1.0" standalone="no"?>
<!DOCTYPE svg PUBLIC "-//W3C//DTD SVG 20010904//EN"
 "http://www.w3.org/TR/2001/REC-SVG-20010904/DTD/svg10.dtd">
<svg version="1.0" xmlns="http://www.w3.org/2000/svg"
 width="318.000000pt" height="159.000000pt" viewBox="0 0 318.000000 159.000000"
 preserveAspectRatio="xMidYMid meet">

<g transform="translate(0.000000,159.000000) scale(0.100000,-0.100000)"
fill="#000000" stroke="none">
<path d="M2270 1420 c0 -5 -8 -10 -19 -10 -10 0 -24 -7 -31 -15 -7 -8 -18 -15
-24 -15 -22 0 -115 -174 -101 -188 7 -8 35 26 35 42 0 9 5 16 11 16 6 0 9 6 6
14 -3 8 1 20 10 28 14 11 15 10 10 -7 -3 -11 -9 -37 -13 -57 -3 -21 -10 -35
-15 -32 -5 3 -9 -1 -9 -9 0 -8 -7 -20 -15 -27 -8 -7 -15 -21 -15 -31 0 -24
-20 -25 -21 -1 0 9 -11 -14 -23 -53 -12 -38 -27 -79 -34 -91 -23 -44 -128
-164 -143 -164 -4 0 -13 16 -19 35 -12 36 -42 61 -60 50 -12 -7 -2 -84 13
-103 12 -15 -5 -38 -21 -28 -26 16 -74 134 -159 386 -25 74 -50 141 -55 148
-16 18 -1 27 18 11 15 -12 16 -11 10 11 -6 21 -5 22 4 7 7 -10 9 -24 6 -32 -3
-9 0 -12 9 -9 8 3 16 -3 20 -16 4 -12 9 -20 11 -17 9 9 -16 58 -47 91 -37 41
-85 66 -128 66 -39 0 -118 -27 -154 -52 -28 -20 -28 -20 -50 0 -35 32 -63 42
-112 42 -57 0 -90 -17 -141 -72 -57 -62 -92 -116 -169 -263 -91 -173 -100
-191 -121 -255 -11 -30 -21 -57 -24 -60 -3 -3 -5 -24 -6 -47 l-1 -43 67 0 c73
0 128 15 147 39 9 12 12 12 13 3 0 -7 5 -10 11 -6 8 5 8 9 -1 14 -8 5 6 41 48
122 39 75 55 115 46 115 -8 0 -14 -7 -14 -15 0 -12 -2 -12 -17 -1 -9 8 -19 14
-22 14 -32 0 179 290 254 349 37 28 45 27 58 -7 1 -5 15 -3 30 2 16 6 26 7 23
2 -6 -10 24 -75 31 -67 2 2 0 13 -6 24 -23 43 -10 34 20 -14 18 -27 54 -107
81 -179 67 -176 115 -271 164 -322 22 -23 35 -45 30 -47 -6 -2 71 -5 172 -5
134 -1 191 3 216 13 34 14 131 106 147 141 9 17 7 16 -10 -3 -11 -13 -24 -21
-29 -18 -4 2 -17 -9 -27 -25 -11 -16 -23 -29 -27 -29 -4 0 4 17 18 37 14 21
40 69 58 108 19 38 66 137 105 219 55 115 69 152 59 159 -10 7 -9 8 2 4 11 -3
27 16 53 64 l37 69 -85 0 c-50 0 -85 -4 -85 -10z m-705 -70 c3 -6 -1 -7 -9 -4
-18 7 -21 14 -7 14 6 0 13 -4 16 -10z m512 -277 c-3 -10 -5 -4 -5 12 0 17 2
24 5 18 2 -7 2 -21 0 -30z m-118 -223 c-16 -33 -29 -64 -29 -70 0 -19 -20 -20
-30 0 -8 16 -8 24 4 35 11 11 16 12 19 2 3 -6 6 -3 6 7 1 17 46 86 56 86 2 0
-10 -27 -26 -60z"/>
<path d="M1031 807 c-13 -21 -12 -21 5 -5 10 10 16 20 13 22 -3 3 -11 -5 -18
-17z"/>
<path d="M1460 800 c0 -5 5 -10 11 -10 5 0 7 5 4 10 -3 6 -8 10 -11 10 -2 0
-4 -4 -4 -10z"/>
<path d="M1496 785 c7 -17 34 -21 34 -4 0 5 -4 7 -10 4 -5 -3 -10 -1 -10 4 0
6 -4 11 -10 11 -5 0 -7 -7 -4 -15z"/>
<path d="M970 774 c0 -10 28 -33 33 -27 3 3 0 12 -8 19 -14 15 -25 18 -25 8z"/>
<path d="M1470 773 c0 -15 53 -61 83 -72 16 -6 40 -11 55 -10 26 0 27 0 4 9
-12 5 -34 22 -47 37 -19 21 -27 25 -33 15 -7 -10 -15 -8 -35 8 -15 12 -27 17
-27 13z"/>
<path d="M2218 715 c2 -14 6 -25 8 -25 2 0 4 11 4 25 0 14 -4 25 -9 25 -4 0
-6 -11 -3 -25z"/>
<path d="M2250 713 c0 -22 2 -25 10 -13 13 20 13 40 0 40 -5 0 -10 -12 -10
-27z"/>
<path d="M2290 715 c-7 -14 -10 -28 -7 -32 4 -3 7 1 7 10 0 20 16 23 23 5 2
-7 4 -1 4 15 1 34 -10 35 -27 2z"/>
<path d="M670 689 c0 -5 5 -7 10 -4 6 3 10 8 10 11 0 2 -4 4 -10 4 -5 0 -10
-5 -10 -11z"/>
<path d="M1682 521 c-11 -6 -32 -223 -32 -328 0 -36 3 -43 20 -43 16 0 20 7
21 38 1 20 4 91 8 157 l6 120 50 -154 c47 -147 66 -180 86 -150 5 8 31 80 58
161 l48 148 9 -158 c9 -154 9 -157 32 -160 24 -4 24 -3 18 65 -3 37 -8 121
-12 186 l-6 117 -29 0 c-35 0 -35 -2 -89 -164 l-43 -129 -46 143 c-36 110 -51
145 -67 151 -12 4 -26 4 -32 0z"/>
<path d="M730 335 l0 -185 30 0 30 0 0 143 c1 135 2 141 16 112 9 -16 45 -81
81 -142 62 -109 66 -113 99 -113 l34 0 0 185 0 185 -30 0 -30 0 0 -132 c-1
-126 -2 -132 -16 -103 -9 17 -43 76 -77 133 -60 101 -61 102 -99 102 l-38 0 0
-185z"/>
<path d="M1060 335 l0 -185 110 0 110 0 0 30 0 30 -75 0 -75 0 0 50 0 50 65 0
65 0 0 31 0 31 -65 -4 -65 -3 0 53 0 53 123 -3 122 -3 3 -157 3 -158 29 0 30
0 0 160 0 160 50 0 c47 0 50 2 50 25 l0 25 -240 0 -240 0 0 -185z"/>
<path d="M2020 508 c0 -7 24 -89 53 -183 51 -162 54 -170 80 -173 15 -2 27 -2
27 0 0 2 27 82 60 178 33 96 60 178 60 182 0 4 -10 8 -23 8 -20 0 -27 -16 -71
-152 l-49 -153 -33 105 c-18 58 -39 126 -46 153 -10 39 -16 47 -35 47 -13 0
-23 -6 -23 -12z"/>
<path d="M2395 501 c-82 -50 -113 -142 -83 -243 23 -76 113 -126 204 -112 48
7 57 14 48 37 -4 12 -13 13 -45 5 -50 -13 -119 11 -144 49 -25 38 -31 132 -11
170 29 58 63 75 133 71 48 -3 64 -1 68 11 9 22 -14 31 -80 31 -41 0 -69 -6
-90 -19z"/>
<path d="M632 218 c-18 -18 -14 -56 7 -68 26 -14 50 -3 57 26 11 42 -34 72
-64 42z"/>
</g>
</svg>
