<?xml version="1.0" standalone="no"?>
<!DOCTYPE svg PUBLIC "-//W3C//DTD SVG 20010904//EN"
 "http://www.w3.org/TR/2001/REC-SVG-20010904/DTD/svg10.dtd">
<svg version="1.0" xmlns="http://www.w3.org/2000/svg"
 width="225.000000pt" height="225.000000pt" viewBox="0 0 225.000000 225.000000"
 preserveAspectRatio="xMidYMid meet">

<g transform="translate(0.000000,225.000000) scale(0.100000,-0.100000)"
fill="#000000" stroke="none">
<path d="M1020 2129 c-153 -15 -338 -83 -470 -172 -66 -45 -196 -173 -245
-242 -239 -334 -251 -794 -29 -1138 56 -87 176 -213 260 -273 339 -243 815
-249 1161 -13 69 47 198 174 249 245 249 347 249 830 -1 1179 -50 70 -179 197
-248 244 -123 84 -308 154 -439 166 -127 12 -155 12 -238 4z m-190 -414 c0
-18 5 -25 20 -25 15 0 20 7 20 25 0 22 4 25 35 25 l36 0 -3 -82 -3 -83 -32 -3
c-31 -3 -33 -1 -33 27 0 24 -4 31 -20 31 -16 0 -20 -7 -20 -30 0 -27 -3 -30
-30 -30 l-30 0 0 85 0 85 30 0 c25 0 30 -4 30 -25z m280 -5 c0 -25 -4 -30 -25
-30 -24 0 -25 -3 -25 -55 0 -54 0 -55 -30 -55 -30 0 -30 1 -30 55 0 52 -1 55
-25 55 -21 0 -25 5 -25 30 l0 30 80 0 80 0 0 -30z m100 4 l14 -25 19 25 c13
18 28 26 48 26 l29 0 0 -85 0 -85 -30 0 c-28 0 -30 3 -31 38 0 34 -1 35 -11
15 -14 -29 -23 -29 -42 -1 -16 22 -16 22 -16 -15 0 -34 -2 -37 -30 -37 l-30 0
0 85 0 85 33 0 c26 0 37 -6 47 -26z m200 -29 l0 -55 35 0 c32 0 35 -2 35 -30
l0 -30 -70 0 -70 0 0 85 0 85 35 0 35 0 0 -55z m145 -272 c-3 -49 -21 -250
-39 -447 l-31 -359 -181 -50 -181 -49 -179 49 -179 50 -31 359 c-18 197 -36
398 -39 447 l-8 87 438 0 438 0 -8 -87z"/>
<path d="M855 1283 c7 -50 25 -252 25 -275 0 -17 13 -18 190 -18 l190 0 0 -22
c0 -13 -3 -46 -6 -74 l-7 -52 -61 -16 c-58 -16 -66 -16 -123 0 -61 17 -61 17
-68 60 l-6 44 -51 0 -50 0 7 -82 c4 -46 8 -84 9 -85 0 -1 51 -15 111 -31 l110
-29 101 27 c55 15 105 30 111 33 5 3 13 50 17 104 3 54 9 126 13 161 l6 62
-195 0 -195 0 -7 31 c-3 17 -6 44 -6 60 l0 29 210 0 210 0 0 55 0 55 -270 0
-270 0 5 -37z"/>
</g>
</svg>
