<?xml version="1.0" standalone="no"?>
<!DOCTYPE svg PUBLIC "-//W3C//DTD SVG 20010904//EN"
 "http://www.w3.org/TR/2001/REC-SVG-20010904/DTD/svg10.dtd">
<svg version="1.0" xmlns="http://www.w3.org/2000/svg"
 width="220.000000pt" height="229.000000pt" viewBox="0 0 220.000000 229.000000"
 preserveAspectRatio="xMidYMid meet">

<g transform="translate(0.000000,229.000000) scale(0.100000,-0.100000)"
fill="#000000" stroke="none">
<path d="M235 2164 c-121 -69 -223 -131 -227 -138 -4 -6 -8 -340 -8 -742 0
-684 1 -732 18 -746 17 -15 804 -470 845 -489 20 -9 77 21 452 237 237 136
433 252 437 258 4 6 8 117 8 246 l0 236 208 119 207 120 0 265 0 265 -220 127
c-121 70 -223 128 -227 128 -4 0 -107 -58 -230 -129 l-223 -128 -3 -244 -3
-244 -166 -95 c-91 -52 -172 -96 -180 -98 -10 -3 -13 81 -15 460 l-3 463 -220
127 c-121 70 -222 128 -225 128 -3 0 -104 -57 -225 -126z m453 -79 c67 -38
122 -72 122 -75 0 -3 -79 -49 -176 -104 -134 -76 -179 -97 -193 -90 -47 23
-331 190 -331 195 0 3 78 50 172 105 l173 101 55 -31 c31 -17 110 -62 178
-101z m1265 -237 c113 -65 125 -74 110 -86 -10 -7 -89 -54 -176 -104 -121 -69
-163 -88 -177 -82 -63 31 -329 190 -327 197 1 4 79 52 172 106 l170 98 50 -28
c28 -16 107 -61 178 -101z m-1696 -3 l173 -99 2 -485 3 -484 199 -113 c109
-62 203 -117 208 -122 4 -4 7 -99 6 -209 l-3 -200 -385 222 -385 222 -3 687
c-1 378 1 685 5 683 5 -2 86 -48 180 -102z m593 -338 l0 -443 -137 -79 c-76
-43 -157 -89 -180 -103 l-43 -24 0 445 0 445 173 100 c94 55 175 101 180 101
4 1 7 -198 7 -442z m700 85 l135 -78 3 -202 c1 -111 0 -202 -3 -202 -4 0 -82
44 -175 98 l-170 97 0 203 0 202 38 -20 c20 -11 98 -55 172 -98z m568 -84 l-3
-202 -170 -98 c-93 -54 -173 -98 -178 -98 -4 0 -6 91 -5 201 l3 201 170 99
c94 54 173 98 178 98 4 1 6 -90 5 -201z m-637 -360 c151 -86 175 -104 161
-113 -9 -6 -184 -107 -389 -224 l-372 -212 -175 98 c-96 54 -175 100 -176 103
0 4 757 446 769 449 3 1 85 -45 182 -101z m207 -370 l-3 -202 -375 -218 c-206
-119 -381 -217 -388 -217 -10 -1 -12 42 -10 200 l3 202 380 218 c209 120 383
218 388 218 4 1 6 -90 5 -201z"/>
</g>
</svg>
