<?xml version="1.0" standalone="no"?>
<!DOCTYPE svg PUBLIC "-//W3C//DTD SVG 20010904//EN"
 "http://www.w3.org/TR/2001/REC-SVG-20010904/DTD/svg10.dtd">
<svg version="1.0" xmlns="http://www.w3.org/2000/svg"
 width="241.000000pt" height="209.000000pt" viewBox="0 0 241.000000 209.000000"
 preserveAspectRatio="xMidYMid meet">

<g transform="translate(0.000000,209.000000) scale(0.100000,-0.100000)"
fill="#000000" stroke="none">
<path d="M1450 1245 c0 -58 -3 -105 -6 -105 -3 0 -14 5 -25 11 -16 8 -33 3
-87 -27 -37 -21 -70 -42 -75 -48 -4 -6 -6 -45 -5 -86 l3 -75 72 -43 72 -43 71
42 70 41 0 197 0 196 -40 23 c-21 12 -41 22 -44 22 -4 0 -6 -47 -6 -105z m-25
-207 c34 -15 34 -60 0 -82 -20 -13 -29 -14 -50 -4 -30 14 -35 63 -7 84 21 17
25 17 57 2z"/>
<path d="M543 1122 l-63 -36 0 -108 c0 -59 2 -108 5 -108 3 0 23 11 45 25 39
24 40 27 40 79 0 46 3 56 25 70 23 15 27 15 50 0 20 -13 25 -25 27 -72 3 -55
4 -57 46 -80 l42 -23 0 109 0 110 -64 36 c-35 20 -70 36 -78 36 -7 -1 -41 -17
-75 -38z"/>
<path d="M1707 1119 l-68 -41 3 -81 3 -82 65 -37 c36 -21 72 -38 80 -38 8 0
32 11 53 24 l39 24 -71 38 c-65 36 -71 41 -71 72 0 25 6 35 25 44 34 15 75 -6
75 -39 0 -29 1 -29 51 3 33 20 40 30 37 52 -2 21 -17 35 -68 64 -36 21 -69 38
-75 38 -5 0 -41 -18 -78 -41z"/>
<path d="M1773 1023 c-19 -7 -16 -40 4 -47 21 -8 36 6 31 30 -3 19 -16 25 -35
17z"/>
</g>
</svg>
